ffmpeg version 7.1.1 Copyright (c) 2000-2025 the FFmpeg developers
  built with Apple clang version 17.0.0 (clang-1700.0.13.5)
  configuration: --prefix=/opt/homebrew/Cellar/ffmpeg/7.1.1-with-options --enable-shared --cc=clang --host-cflags= --host-ldflags= --enable-gpl --enable-libaom --enable-libdav1d --enable-libmp3lame --enable-libopus --enable-libsnappy --enable-libtheora --enable-libvorbis --enable-libvpx --enable-libx264 --enable-libx265 --enable-libfontconfig --enable-libfreetype --enable-frei0r --enable-libass --enable-demuxer=dash --enable-opencl --enable-audiotoolbox --enable-videotoolbox --enable-neon --disable-htmlpages --enable-libcaca --enable-libfdk-aac --enable-libgsm --enable-libmodplug --enable-librtmp --enable-libsoxr --enable-libssh --enable-libtwolame --enable-libvidstab --enable-nonfree
  libavutil      59. 39.100 / 59. 39.100
  libavcodec     61. 19.101 / 61. 19.101
  libavformat    61.  7.100 / 61.  7.100
  libavdevice    61.  3.100 / 61.  3.100
  libavfilter    10.  4.100 / 10.  4.100
  libswscale      8.  3.100 /  8.  3.100
  libswresample   5.  3.100 /  5.  3.100
  libpostproc    58.  3.100 / 58.  3.100
[hls @ 0x1519046e0] Opening 'https://tunein.cdnstream1.com:443/3511_96.aac/playlist.m3u8?listeningSessionID=687524bd0212d116_1220169_mLmHStOY_MjE2LjIzNS44MC4xMTc6ODA!_0000000NIjk&downloadSessionID=0&aw_0_1st.premium=true&partnerID=BotTIStream&playerid=BotTIStream&aw_0_1st.ads_partner_alias=bot.TIStream' for reading
[hls @ 0x1519046e0] Skip ('#EXT-X-VERSION:3')
[hls @ 0x1519046e0] Skip ('#EXT-X-DISCONTINUITY-SEQUENCE:0')
[hls @ 0x1519046e0] Opening 'https://tunein-acache-a.cdnstream1.com/segments/tunein_newEnco/ad_65210_582f8972823eef220b5d0d99f884feb4_2f792b2391017ef2c5ba32d3d4c7f484_93_6000_2.aac' for reading
Input #0, hls, from 'https://tunein.cdnstream1.com/3511_96.aac/playlist.m3u8?aw_0_1st.premium=true&partnerID=BotTIStream&playerid=BotTIStream&aw_0_1st.ads_partner_alias=bot.TIStream':
  Duration: N/A, bitrate: N/A
  Program 0 
    Metadata:
      variant_bitrate : 96000
  Stream #0:0: Audio: aac (LC), 44100 Hz, stereo, fltp
      Metadata:
        variant_bitrate : 96000
Stream mapping:
  Stream #0:0 -> #0:0 (aac (native) -> pcm_s16le (native))
Press [q] to stop, [?] for help
Output #0, wav, to '/Users/rblaney-x/Projects/CDN-Benchmark-Suite/cdn-benchmark-cli/test-audio/msnbc_hls_cdn_240s.wav':
  Metadata:
    ISFT            : Lavf61.7.100
  Stream #0:0: Audio: pcm_s16le ([1][0][0][0] / 0x0001), 44100 Hz, stereo, s16, 1411 kb/s
      Metadata:
        variant_bitrate : 96000
        encoder         : Lavc61.19.101 pcm_s16le
size=     768KiB time=00:00:05.08 bitrate=1237.2kbits/s speed=10.1x    size=     768KiB time=00:00:05.08 bitrate=1237.2kbits/s speed=5.06x    size=     768KiB time=00:00:05.08 bitrate=1237.2kbits/s speed=3.37x    size=     768KiB time=00:00:05.08 bitrate=1237.2kbits/s speed=2.53x    size=     768KiB time=00:00:05.08 bitrate=1237.2kbits/s speed=2.02x    size=     768KiB time=00:00:05.08 bitrate=1237.2kbits/s speed=1.69x    size=     768KiB time=00:00:05.08 bitrate=1237.2kbits/s speed=1.45x    size=     768KiB time=00:00:05.08 bitrate=1237.2kbits/s speed=1.26x    [https @ 0x15480e400] Opening 'https://tunein.cdnstream1.com:443/3511_96.aac/playlist.m3u8?listeningSessionID=687524bd0212d116_1220169_mLmHStOY_MjE2LjIzNS44MC4xMTc6ODA!_0000000NIjk&downloadSessionID=0&aw_0_1st.premium=true&partnerID=BotTIStream&playerid=BotTIStream&aw_0_1st.ads_partner_alias=bot.TIStream' for reading
size=     768KiB time=00:00:05.08 bitrate=1237.2kbits/s speed=1.12x    [hls @ 0x1519046e0] Skip ('#EXT-X-VERSION:3')
[hls @ 0x1519046e0] Skip ('#EXT-X-DISCONTINUITY-SEQUENCE:0')
[hls @ 0x1519046e0] Skip ('#EXT-X-DISCONTINUITY')
    Last message repeated 1 times
[https @ 0x154812400] Opening 'https://tunein-acache-a.cdnstream1.com/segments/tunein_newEnco/ad_65210_582f8972823eef220b5d0d99f884feb4_2f792b2391017ef2c5ba32d3d4c7f484_93_6000_3.aac' for reading
size=     768KiB time=00:00:05.08 bitrate=1237.2kbits/s speed=1.01x    [hls @ 0x1519046e0] Opening 'https://tunein-acache-a.cdnstream1.com/segments/tunein_newEnco/ad_65210_582f8972823eef220b5d0d99f884feb4_2f792b2391017ef2c5ba32d3d4c7f484_93_6000_4.aac' for reading
size=     768KiB time=00:00:05.08 bitrate=1237.2kbits/s speed=0.919x    [https @ 0x154812400] Opening 'https://tunein-acache-a.cdnstream1.com/segments/tunein_newEnco/ad_65210_582f8972823eef220b5d0d99f884feb4_2f792b2391017ef2c5ba32d3d4c7f484_93_6000_5.aac' for reading
[https @ 0x15482e200] Opening 'https://tunein-acache-a.cdnstream1.com/segments/tunein_newEnco/ad_63772_cb7bda8da225a69b8e41bc7a12d6e8cb_2f792b2391017ef2c5ba32d3d4c7f484_93_6000_0.aac' for reading
[https @ 0x154812400] Opening 'https://tunein-acache-a.cdnstream1.com/segments/tunein_newEnco/ad_63772_cb7bda8da225a69b8e41bc7a12d6e8cb_2f792b2391017ef2c5ba32d3d4c7f484_93_6000_1.aac' for reading
[https @ 0x15482e200] Opening 'https://tunein-acache-a.cdnstream1.com/segments/tunein_newEnco/ad_63772_cb7bda8da225a69b8e41bc7a12d6e8cb_2f792b2391017ef2c5ba32d3d4c7f484_93_6000_2.aac' for reading
[https @ 0x154812400] Opening 'https://tunein-acache-a.cdnstream1.com/segments/tunein_newEnco/ad_63772_cb7bda8da225a69b8e41bc7a12d6e8cb_2f792b2391017ef2c5ba32d3d4c7f484_93_6000_3.aac' for reading
size=    5888KiB time=00:00:35.50 bitrate=1358.6kbits/s speed=5.88x    [https @ 0x15482e200] Opening 'https://tunein-acache-a.cdnstream1.com/segments/tunein_newEnco/ad_63772_cb7bda8da225a69b8e41bc7a12d6e8cb_2f792b2391017ef2c5ba32d3d4c7f484_93_6000_4.aac' for reading
[https @ 0x154812400] Opening 'https://tunein-acache-a.cdnstream1.com/segments/tunein_newEnco/ad_63772_cb7bda8da225a69b8e41bc7a12d6e8cb_2f792b2391017ef2c5ba32d3d4c7f484_93_6000_5.aac' for reading
[https @ 0x15482e200] Opening 'https://tunein-acache-a.cdnstream1.com/segments/tunein_newEnco/ad_63772_cb7bda8da225a69b8e41bc7a12d6e8cb_2f792b2391017ef2c5ba32d3d4c7f484_93_6000_6.aac' for reading
[https @ 0x154812400] Opening 'https://tunein-acache-a.cdnstream1.com/segments/tunein_newEnco/ad_63772_cb7bda8da225a69b8e41bc7a12d6e8cb_2f792b2391017ef2c5ba32d3d4c7f484_93_6000_7.aac' for reading
[https @ 0x15482e200] Opening 'https://tunein-acache-a.cdnstream1.com/segments/tunein_newEnco/ad_63772_cb7bda8da225a69b8e41bc7a12d6e8cb_2f792b2391017ef2c5ba32d3d4c7f484_93_6000_8.aac' for reading
[https @ 0x15480e400] Opening 'https://tunein.cdnstream1.com:443/3511_96.aac/playlist.m3u8?listeningSessionID=687524bd0212d116_1220169_mLmHStOY_MjE2LjIzNS44MC4xMTc6ODA!_0000000NIjk&downloadSessionID=0&aw_0_1st.premium=true&partnerID=BotTIStream&playerid=BotTIStream&aw_0_1st.ads_partner_alias=bot.TIStream' for reading
size=   11008KiB time=00:01:04.13 bitrate=1406.1kbits/s speed=9.81x    [hls @ 0x1519046e0] Skip ('#EXT-X-VERSION:3')
[hls @ 0x1519046e0] Skip ('#EXT-X-DISCONTINUITY-SEQUENCE:0')
[hls @ 0x1519046e0] Skip ('#EXT-X-DISCONTINUITY')
    Last message repeated 2 times
[https @ 0x154812400] Opening 'https://tunein-acache-a.cdnstream1.com/segments/tunein_newEnco/ad_63772_cb7bda8da225a69b8e41bc7a12d6e8cb_2f792b2391017ef2c5ba32d3d4c7f484_93_6000_9.aac' for reading
[https @ 0x15482e200] Opening 'https://tunein-acache-a.cdnstream1.com/segments/tunein_newEnco/ad_63772_cb7bda8da225a69b8e41bc7a12d6e8cb_2f792b2391017ef2c5ba32d3d4c7f484_93_6000_10.aac' for reading
size=   11776KiB time=00:01:09.61 bitrate=1385.8kbits/s speed=9.88x    [https @ 0x154812400] Opening 'https://tunein-acache-a.cdnstream1.com/ais-edge151-tunein-dal03.cdnstream.com/3511_96.aac/gBSqWDRc67g-292287940-4342.aac' for reading
[https @ 0x15482e200] Opening 'https://tunein-acache-a.cdnstream1.com/ais-edge151-tunein-dal03.cdnstream.com/3511_96.aac/8FhARHO8vZX-292287941-1648.aac' for reading
[https @ 0x154812400] Opening 'https://tunein-acache-a.cdnstream1.com/segments/tunein_newEnco/ad_63772_cb7bda8da225a69b8e41bc7a12d6e8cb_2f792b2391017ef2c5ba32d3d4c7f484_93_6000_0.aac' for reading
[https @ 0x15482e200] Opening 'https://tunein-acache-a.cdnstream1.com/segments/tunein_newEnco/ad_63772_cb7bda8da225a69b8e41bc7a12d6e8cb_2f792b2391017ef2c5ba32d3d4c7f484_93_6000_1.aac' for reading
size=   14848KiB time=00:01:26.68 bitrate=1403.3kbits/s speed=11.5x    [https @ 0x154812400] Opening 'https://tunein-acache-a.cdnstream1.com/segments/tunein_newEnco/ad_63772_cb7bda8da225a69b8e41bc7a12d6e8cb_2f792b2391017ef2c5ba32d3d4c7f484_93_6000_2.aac' for reading
[https @ 0x15482e200] Opening 'https://tunein-acache-a.cdnstream1.com/segments/tunein_newEnco/ad_63772_cb7bda8da225a69b8e41bc7a12d6e8cb_2f792b2391017ef2c5ba32d3d4c7f484_93_6000_3.aac' for reading
[https @ 0x154812400] Opening 'https://tunein-acache-a.cdnstream1.com/segments/tunein_newEnco/ad_63772_cb7bda8da225a69b8e41bc7a12d6e8cb_2f792b2391017ef2c5ba32d3d4c7f484_93_6000_4.aac' for reading
[https @ 0x15482e200] Opening 'https://tunein-acache-a.cdnstream1.com/segments/tunein_newEnco/ad_63772_cb7bda8da225a69b8e41bc7a12d6e8cb_2f792b2391017ef2c5ba32d3d4c7f484_93_6000_5.aac' for reading
size=   18688KiB time=00:01:48.59 bitrate=1409.7kbits/s speed=13.5x    size=   20480KiB time=00:01:59.55 bitrate=1403.3kbits/s speed=  14x    size=   20480KiB time=00:01:59.55 bitrate=1403.3kbits/s speed=13.2x    size=   20480KiB time=00:01:59.55 bitrate=1403.3kbits/s speed=12.5x    size=   20480KiB time=00:01:59.55 bitrate=1403.3kbits/s speed=11.9x    size=   20480KiB time=00:01:59.55 bitrate=1403.3kbits/s speed=11.3x    size=   20480KiB time=00:01:59.55 bitrate=1403.3kbits/s speed=10.8x    size=   20480KiB time=00:01:59.55 bitrate=1403.3kbits/s speed=10.3x    size=   20480KiB time=00:01:59.55 bitrate=1403.3kbits/s speed= 9.9x    [https @ 0x15480e400] Opening 'https://tunein.cdnstream1.com:443/3511_96.aac/playlist.m3u8?listeningSessionID=687524bd0212d116_1220169_mLmHStOY_MjE2LjIzNS44MC4xMTc6ODA!_0000000NIjk&downloadSessionID=0&aw_0_1st.premium=true&partnerID=BotTIStream&playerid=BotTIStream&aw_0_1st.ads_partner_alias=bot.TIStream' for reading
size=   20480KiB time=00:01:59.55 bitrate=1403.3kbits/s speed=9.51x    [hls @ 0x1519046e0] Skip ('#EXT-X-VERSION:3')
[hls @ 0x1519046e0] Skip ('#EXT-X-DISCONTINUITY-SEQUENCE:0')
[hls @ 0x1519046e0] Skip ('#EXT-X-DISCONTINUITY')
    Last message repeated 2 times
[https @ 0x15482e200] Opening 'https://tunein-acache-a.cdnstream1.com/segments/tunein_newEnco/ad_63772_cb7bda8da225a69b8e41bc7a12d6e8cb_2f792b2391017ef2c5ba32d3d4c7f484_93_6000_6.aac' for reading
size=   20480KiB time=00:01:59.55 bitrate=1403.3kbits/s speed=9.14x    size=   21504KiB time=00:02:05.03 bitrate=1408.8kbits/s speed=9.21x    size=   21504KiB time=00:02:05.03 bitrate=1408.8kbits/s speed=8.88x    size=   21504KiB time=00:02:05.03 bitrate=1408.8kbits/s speed=8.57x    size=   21504KiB time=00:02:05.03 bitrate=1408.8kbits/s speed=8.29x    size=   21504KiB time=00:02:05.03 bitrate=1408.8kbits/s speed=8.02x    size=   21504KiB time=00:02:05.03 bitrate=1408.8kbits/s speed=7.77x    size=   21504KiB time=00:02:05.03 bitrate=1408.8kbits/s speed=7.54x    size=   21504KiB time=00:02:05.03 bitrate=1408.8kbits/s speed=7.31x    size=   21504KiB time=00:02:05.03 bitrate=1408.8kbits/s speed= 7.1x    size=   21504KiB time=00:02:05.03 bitrate=1408.8kbits/s speed=6.91x    [https @ 0x15480e400] Opening 'https://tunein.cdnstream1.com:443/3511_96.aac/playlist.m3u8?listeningSessionID=687524bd0212d116_1220169_mLmHStOY_MjE2LjIzNS44MC4xMTc6ODA!_0000000NIjk&downloadSessionID=0&aw_0_1st.premium=true&partnerID=BotTIStream&playerid=BotTIStream&aw_0_1st.ads_partner_alias=bot.TIStream' for reading
[hls @ 0x1519046e0] Skip ('#EXT-X-VERSION:3')
[hls @ 0x1519046e0] Skip ('#EXT-X-DISCONTINUITY-SEQUENCE:0')
[hls @ 0x1519046e0] Skip ('#EXT-X-DISCONTINUITY')
    Last message repeated 2 times
[https @ 0x15482e200] Opening 'https://tunein-acache-a.cdnstream1.com/segments/tunein_newEnco/ad_63772_cb7bda8da225a69b8e41bc7a12d6e8cb_2f792b2391017ef2c5ba32d3d4c7f484_93_6000_7.aac' for reading
size=   21504KiB time=00:02:05.03 bitrate=1408.8kbits/s speed=6.72x    size=   22272KiB time=00:02:10.51 bitrate=1397.9kbits/s speed=6.83x    size=   22272KiB time=00:02:10.51 bitrate=1397.9kbits/s speed=6.66x    size=   22272KiB time=00:02:10.51 bitrate=1397.9kbits/s speed=6.49x    size=   22272KiB time=00:02:10.51 bitrate=1397.9kbits/s speed=6.33x    size=   22272KiB time=00:02:10.51 bitrate=1397.9kbits/s speed=6.18x    size=   22272KiB time=00:02:10.51 bitrate=1397.9kbits/s speed=6.03x    size=   22272KiB time=00:02:10.51 bitrate=1397.9kbits/s speed= 5.9x    size=   22272KiB time=00:02:10.51 bitrate=1397.9kbits/s speed=5.76x    size=   22272KiB time=00:02:10.51 bitrate=1397.9kbits/s speed=5.64x    size=   22272KiB time=00:02:10.51 bitrate=1397.9kbits/s speed=5.52x    [https @ 0x15480e400] Opening 'https://tunein.cdnstream1.com:443/3511_96.aac/playlist.m3u8?listeningSessionID=687524bd0212d116_1220169_mLmHStOY_MjE2LjIzNS44MC4xMTc6ODA!_0000000NIjk&downloadSessionID=0&aw_0_1st.premium=true&partnerID=BotTIStream&playerid=BotTIStream&aw_0_1st.ads_partner_alias=bot.TIStream' for reading
[hls @ 0x1519046e0] Skip ('#EXT-X-VERSION:3')
[hls @ 0x1519046e0] Skip ('#EXT-X-DISCONTINUITY-SEQUENCE:0')
[hls @ 0x1519046e0] Skip ('#EXT-X-DISCONTINUITY')
    Last message repeated 2 times
size=   22272KiB time=00:02:10.51 bitrate=1397.9kbits/s speed= 5.4x    size=   22272KiB time=00:02:10.51 bitrate=1397.9kbits/s speed=5.29x    size=   22272KiB time=00:02:10.51 bitrate=1397.9kbits/s speed=5.19x    size=   22272KiB time=00:02:10.51 bitrate=1397.9kbits/s speed=5.08x    size=   22272KiB time=00:02:10.51 bitrate=1397.9kbits/s speed=4.99x    size=   22272KiB time=00:02:10.51 bitrate=1397.9kbits/s speed=4.89x    size=   22272KiB time=00:02:10.51 bitrate=1397.9kbits/s speed= 4.8x    [https @ 0x15480e400] Opening 'https://tunein.cdnstream1.com:443/3511_96.aac/playlist.m3u8?listeningSessionID=687524bd0212d116_1220169_mLmHStOY_MjE2LjIzNS44MC4xMTc6ODA!_0000000NIjk&downloadSessionID=0&aw_0_1st.premium=true&partnerID=BotTIStream&playerid=BotTIStream&aw_0_1st.ads_partner_alias=bot.TIStream' for reading
size=   22272KiB time=00:02:10.51 bitrate=1397.9kbits/s speed=4.71x    [hls @ 0x1519046e0] Skip ('#EXT-X-VERSION:3')
[hls @ 0x1519046e0] Skip ('#EXT-X-DISCONTINUITY-SEQUENCE:0')
[hls @ 0x1519046e0] Skip ('#EXT-X-DISCONTINUITY')
    Last message repeated 2 times
[https @ 0x15482e200] Opening 'https://tunein-acache-a.cdnstream1.com/segments/tunein_newEnco/ad_63772_cb7bda8da225a69b8e41bc7a12d6e8cb_2f792b2391017ef2c5ba32d3d4c7f484_93_6000_8.aac' for reading
size=   22272KiB time=00:02:10.51 bitrate=1397.9kbits/s speed=4.63x    size=   23296KiB time=00:02:15.99 bitrate=1403.2kbits/s speed=4.74x    size=   23296KiB time=00:02:15.99 bitrate=1403.2kbits/s speed=4.66x    size=   23296KiB time=00:02:15.99 bitrate=1403.2kbits/s speed=4.58x    size=   23296KiB time=00:02:15.99 bitrate=1403.2kbits/s speed= 4.5x    size=   23296KiB time=00:02:15.99 bitrate=1403.2kbits/s speed=4.43x    size=   23296KiB time=00:02:15.99 bitrate=1403.2kbits/s speed=4.36x    size=   23296KiB time=00:02:15.99 bitrate=1403.2kbits/s speed=4.29x    size=   23296KiB time=00:02:15.99 bitrate=1403.2kbits/s speed=4.22x    size=   23296KiB time=00:02:15.99 bitrate=1403.2kbits/s speed=4.16x    size=   23296KiB time=00:02:15.99 bitrate=1403.2kbits/s speed=4.09x    [https @ 0x15480e400] Opening 'https://tunein.cdnstream1.com:443/3511_96.aac/playlist.m3u8?listeningSessionID=687524bd0212d116_1220169_mLmHStOY_MjE2LjIzNS44MC4xMTc6ODA!_0000000NIjk&downloadSessionID=0&aw_0_1st.premium=true&partnerID=BotTIStream&playerid=BotTIStream&aw_0_1st.ads_partner_alias=bot.TIStream' for reading
[hls @ 0x1519046e0] Skip ('#EXT-X-VERSION:3')
[hls @ 0x1519046e0] Skip ('#EXT-X-DISCONTINUITY-SEQUENCE:0')
[hls @ 0x1519046e0] Skip ('#EXT-X-DISCONTINUITY')
    Last message repeated 2 times
[https @ 0x15482e200] Opening 'https://tunein-acache-a.cdnstream1.com/segments/tunein_newEnco/ad_63772_cb7bda8da225a69b8e41bc7a12d6e8cb_2f792b2391017ef2c5ba32d3d4c7f484_93_6000_9.aac' for reading
size=   23296KiB time=00:02:15.99 bitrate=1403.2kbits/s speed=4.03x    size=   24320KiB time=00:02:21.47 bitrate=1408.2kbits/s speed=4.13x    size=   24320KiB time=00:02:21.47 bitrate=1408.2kbits/s speed=4.07x    size=   24320KiB time=00:02:21.47 bitrate=1408.2kbits/s speed=4.01x    size=   24320KiB time=00:02:21.47 bitrate=1408.2kbits/s speed=3.96x    size=   24320KiB time=00:02:21.47 bitrate=1408.2kbits/s speed= 3.9x    size=   24320KiB time=00:02:21.47 bitrate=1408.2kbits/s speed=3.85x    size=   24320KiB time=00:02:21.47 bitrate=1408.2kbits/s speed= 3.8x    size=   24320KiB time=00:02:21.47 bitrate=1408.2kbits/s speed=3.75x    size=   24320KiB time=00:02:21.47 bitrate=1408.2kbits/s speed= 3.7x    size=   24320KiB time=00:02:21.47 bitrate=1408.2kbits/s speed=3.65x    [https @ 0x15480e400] Opening 'https://tunein.cdnstream1.com:443/3511_96.aac/playlist.m3u8?listeningSessionID=687524bd0212d116_1220169_mLmHStOY_MjE2LjIzNS44MC4xMTc6ODA!_0000000NIjk&downloadSessionID=0&aw_0_1st.premium=true&partnerID=BotTIStream&playerid=BotTIStream&aw_0_1st.ads_partner_alias=bot.TIStream' for reading
[hls @ 0x1519046e0] Skip ('#EXT-X-VERSION:3')
[hls @ 0x1519046e0] Skip ('#EXT-X-DISCONTINUITY-SEQUENCE:1')
[hls @ 0x1519046e0] Skip ('#EXT-X-DISCONTINUITY')
    Last message repeated 1 times
[https @ 0x15482e200] Opening 'https://tunein-acache-a.cdnstream1.com/segments/tunein_newEnco/ad_63772_cb7bda8da225a69b8e41bc7a12d6e8cb_2f792b2391017ef2c5ba32d3d4c7f484_93_6000_10.aac' for reading
size=   24320KiB time=00:02:21.47 bitrate=1408.2kbits/s speed= 3.6x    size=   25088KiB time=00:02:27.07 bitrate=1397.4kbits/s speed= 3.7x    size=   25088KiB time=00:02:27.07 bitrate=1397.4kbits/s speed=3.65x    size=   25088KiB time=00:02:27.07 bitrate=1397.4kbits/s speed=3.61x    size=   25088KiB time=00:02:27.07 bitrate=1397.4kbits/s speed=3.56x    size=   25088KiB time=00:02:27.07 bitrate=1397.4kbits/s speed=3.52x    size=   25088KiB time=00:02:27.07 bitrate=1397.4kbits/s speed=3.48x    size=   25088KiB time=00:02:27.07 bitrate=1397.4kbits/s speed=3.44x    size=   25088KiB time=00:02:27.07 bitrate=1397.4kbits/s speed= 3.4x    size=   25088KiB time=00:02:27.07 bitrate=1397.4kbits/s speed=3.36x    size=   25088KiB time=00:02:27.07 bitrate=1397.4kbits/s speed=3.32x    size=   25088KiB time=00:02:27.07 bitrate=1397.4kbits/s speed=3.28x    [https @ 0x15480e400] Opening 'https://tunein.cdnstream1.com:443/3511_96.aac/playlist.m3u8?listeningSessionID=687524bd0212d116_1220169_mLmHStOY_MjE2LjIzNS44MC4xMTc6ODA!_0000000NIjk&downloadSessionID=0&aw_0_1st.premium=true&partnerID=BotTIStream&playerid=BotTIStream&aw_0_1st.ads_partner_alias=bot.TIStream' for reading
[hls @ 0x1519046e0] Skip ('#EXT-X-VERSION:3')
[hls @ 0x1519046e0] Skip ('#EXT-X-DISCONTINUITY-SEQUENCE:1')
[hls @ 0x1519046e0] Skip ('#EXT-X-DISCONTINUITY')
    Last message repeated 2 times
[https @ 0x15482e200] Opening 'https://tunein-acache-a.cdnstream1.com/segments/tunein_newEnco/ad_73932_a7867ac83b1a2b945d542746b49a3ef0_2f792b2391017ef2c5ba32d3d4c7f484_93_6000_0.aac' for reading
size=   25088KiB time=00:02:27.07 bitrate=1397.4kbits/s speed=3.24x    size=   26112KiB time=00:02:32.18 bitrate=1405.6kbits/s speed=3.32x    size=   26112KiB time=00:02:32.18 bitrate=1405.6kbits/s speed=3.28x    size=   26112KiB time=00:02:32.18 bitrate=1405.6kbits/s speed=3.25x    size=   26112KiB time=00:02:32.18 bitrate=1405.6kbits/s speed=3.21x    size=   26112KiB time=00:02:32.18 bitrate=1405.6kbits/s speed=3.18x    size=   26112KiB time=00:02:32.18 bitrate=1405.6kbits/s speed=3.15x    size=   26112KiB time=00:02:32.18 bitrate=1405.6kbits/s speed=3.12x    size=   26112KiB time=00:02:32.18 bitrate=1405.6kbits/s speed=3.08x    size=   26112KiB time=00:02:32.18 bitrate=1405.6kbits/s speed=3.05x    size=   26112KiB time=00:02:32.18 bitrate=1405.6kbits/s speed=3.02x    [https @ 0x15480e400] Opening 'https://tunein.cdnstream1.com:443/3511_96.aac/playlist.m3u8?listeningSessionID=687524bd0212d116_1220169_mLmHStOY_MjE2LjIzNS44MC4xMTc6ODA!_0000000NIjk&downloadSessionID=0&aw_0_1st.premium=true&partnerID=BotTIStream&playerid=BotTIStream&aw_0_1st.ads_partner_alias=bot.TIStream' for reading
[hls @ 0x1519046e0] Skip ('#EXT-X-VERSION:3')
[hls @ 0x1519046e0] Skip ('#EXT-X-DISCONTINUITY-SEQUENCE:1')
[hls @ 0x1519046e0] Skip ('#EXT-X-DISCONTINUITY')
    Last message repeated 2 times
[https @ 0x15482e200] Opening 'https://tunein-acache-a.cdnstream1.com/segments/tunein_newEnco/ad_73932_a7867ac83b1a2b945d542746b49a3ef0_2f792b2391017ef2c5ba32d3d4c7f484_93_6000_1.aac' for reading
size=   26112KiB time=00:02:32.18 bitrate=1405.6kbits/s speed=2.99x    size=   26880KiB time=00:02:37.29 bitrate=1400.0kbits/s speed=3.06x    size=   26880KiB time=00:02:37.29 bitrate=1400.0kbits/s speed=3.03x    size=   26880KiB time=00:02:37.29 bitrate=1400.0kbits/s speed=   3x    size=   26880KiB time=00:02:37.29 bitrate=1400.0kbits/s speed=2.97x    size=   26880KiB time=00:02:37.29 bitrate=1400.0kbits/s speed=2.95x    size=   26880KiB time=00:02:37.29 bitrate=1400.0kbits/s speed=2.92x    size=   26880KiB time=00:02:37.29 bitrate=1400.0kbits/s speed=2.89x    size=   26880KiB time=00:02:37.29 bitrate=1400.0kbits/s speed=2.86x    size=   26880KiB time=00:02:37.29 bitrate=1400.0kbits/s speed=2.84x    size=   26880KiB time=00:02:37.29 bitrate=1400.0kbits/s speed=2.81x    [https @ 0x15480e400] Opening 'https://tunein.cdnstream1.com:443/3511_96.aac/playlist.m3u8?listeningSessionID=687524bd0212d116_1220169_mLmHStOY_MjE2LjIzNS44MC4xMTc6ODA!_0000000NIjk&downloadSessionID=0&aw_0_1st.premium=true&partnerID=BotTIStream&playerid=BotTIStream&aw_0_1st.ads_partner_alias=bot.TIStream' for reading
size=   26880KiB time=00:02:37.29 bitrate=1400.0kbits/s speed=2.79x    [hls @ 0x1519046e0] Skip ('#EXT-X-VERSION:3')
[hls @ 0x1519046e0] Skip ('#EXT-X-DISCONTINUITY-SEQUENCE:1')
[hls @ 0x1519046e0] Skip ('#EXT-X-DISCONTINUITY')
    Last message repeated 2 times
[https @ 0x15482e200] Opening 'https://tunein-acache-a.cdnstream1.com/segments/tunein_newEnco/ad_73932_a7867ac83b1a2b945d542746b49a3ef0_2f792b2391017ef2c5ba32d3d4c7f484_93_6000_2.aac' for reading
size=   27904KiB time=00:02:42.40 bitrate=1407.6kbits/s speed=2.85x    size=   27904KiB time=00:02:42.40 bitrate=1407.6kbits/s speed=2.83x    size=   27904KiB time=00:02:42.40 bitrate=1407.6kbits/s speed= 2.8x    size=   27904KiB time=00:02:42.40 bitrate=1407.6kbits/s speed=2.78x    size=   27904KiB time=00:02:42.40 bitrate=1407.6kbits/s speed=2.76x    size=   27904KiB time=00:02:42.40 bitrate=1407.6kbits/s speed=2.73x    size=   27904KiB time=00:02:42.40 bitrate=1407.6kbits/s speed=2.71x    size=   27904KiB time=00:02:42.40 bitrate=1407.6kbits/s speed=2.69x    size=   27904KiB time=00:02:42.40 bitrate=1407.6kbits/s speed=2.66x    size=   27904KiB time=00:02:42.40 bitrate=1407.6kbits/s speed=2.64x    [https @ 0x15480e400] Opening 'https://tunein.cdnstream1.com:443/3511_96.aac/playlist.m3u8?listeningSessionID=687524bd0212d116_1220169_mLmHStOY_MjE2LjIzNS44MC4xMTc6ODA!_0000000NIjk&downloadSessionID=0&aw_0_1st.premium=true&partnerID=BotTIStream&playerid=BotTIStream&aw_0_1st.ads_partner_alias=bot.TIStream' for reading
size=   27904KiB time=00:02:42.40 bitrate=1407.6kbits/s speed=2.62x    [hls @ 0x1519046e0] Skip ('#EXT-X-VERSION:3')
[hls @ 0x1519046e0] Skip ('#EXT-X-DISCONTINUITY-SEQUENCE:1')
[hls @ 0x1519046e0] Skip ('#EXT-X-DISCONTINUITY')
    Last message repeated 2 times
[https @ 0x15482e200] Opening 'https://tunein-acache-a.cdnstream1.com/segments/tunein_newEnco/ad_73932_a7867ac83b1a2b945d542746b49a3ef0_2f792b2391017ef2c5ba32d3d4c7f484_93_6000_3.aac' for reading
[https @ 0x154812400] Opening 'https://tunein-acache-a.cdnstream1.com/segments/tunein_newEnco/ad_73932_a7867ac83b1a2b945d542746b49a3ef0_2f792b2391017ef2c5ba32d3d4c7f484_93_6000_4.aac' for reading
size=   28672KiB time=00:02:47.50 bitrate=1402.2kbits/s speed=2.68x    size=   29696KiB time=00:02:52.61 bitrate=1409.3kbits/s speed=2.74x    size=   29696KiB time=00:02:52.61 bitrate=1409.3kbits/s speed=2.72x    size=   29696KiB time=00:02:52.61 bitrate=1409.3kbits/s speed= 2.7x    size=   29696KiB time=00:02:52.61 bitrate=1409.3kbits/s speed=2.68x    size=   29696KiB time=00:02:52.61 bitrate=1409.3kbits/s speed=2.66x    size=   29696KiB time=00:02:52.61 bitrate=1409.3kbits/s speed=2.64x    size=   29696KiB time=00:02:52.61 bitrate=1409.3kbits/s speed=2.62x    size=   29696KiB time=00:02:52.61 bitrate=1409.3kbits/s speed= 2.6x    size=   29696KiB time=00:02:52.61 bitrate=1409.3kbits/s speed=2.58x    [https @ 0x15480e400] Opening 'https://tunein.cdnstream1.com:443/3511_96.aac/playlist.m3u8?listeningSessionID=687524bd0212d116_1220169_mLmHStOY_MjE2LjIzNS44MC4xMTc6ODA!_0000000NIjk&downloadSessionID=0&aw_0_1st.premium=true&partnerID=BotTIStream&playerid=BotTIStream&aw_0_1st.ads_partner_alias=bot.TIStream' for reading
size=   29696KiB time=00:02:52.61 bitrate=1409.3kbits/s speed=2.56x    [hls @ 0x1519046e0] Skip ('#EXT-X-VERSION:3')
[hls @ 0x1519046e0] Skip ('#EXT-X-DISCONTINUITY-SEQUENCE:1')
[hls @ 0x1519046e0] Skip ('#EXT-X-DISCONTINUITY')
    Last message repeated 2 times
[https @ 0x154812400] Opening 'https://tunein-acache-a.cdnstream1.com/segments/tunein_newEnco/ad_73932_a7867ac83b1a2b945d542746b49a3ef0_2f792b2391017ef2c5ba32d3d4c7f484_93_6000_5.aac' for reading
size=   30464KiB time=00:02:57.70 bitrate=1404.4kbits/s speed=2.61x    size=   30464KiB time=00:02:57.70 bitrate=1404.4kbits/s speed=2.59x    size=   30464KiB time=00:02:57.70 bitrate=1404.4kbits/s speed=2.57x    size=   30464KiB time=00:02:57.70 bitrate=1404.4kbits/s speed=2.56x    size=   30464KiB time=00:02:57.70 bitrate=1404.4kbits/s speed=2.54x    size=   30464KiB time=00:02:57.70 bitrate=1404.4kbits/s speed=2.52x    size=   30464KiB time=00:02:57.70 bitrate=1404.4kbits/s speed= 2.5x    size=   30464KiB time=00:02:57.70 bitrate=1404.4kbits/s speed=2.48x    size=   30464KiB time=00:02:57.70 bitrate=1404.4kbits/s speed=2.47x    size=   30464KiB time=00:02:57.70 bitrate=1404.4kbits/s speed=2.45x    [https @ 0x15480e400] Opening 'https://tunein.cdnstream1.com:443/3511_96.aac/playlist.m3u8?listeningSessionID=687524bd0212d116_1220169_mLmHStOY_MjE2LjIzNS44MC4xMTc6ODA!_0000000NIjk&downloadSessionID=0&aw_0_1st.premium=true&partnerID=BotTIStream&playerid=BotTIStream&aw_0_1st.ads_partner_alias=bot.TIStream' for reading
[hls @ 0x1519046e0] Skip ('#EXT-X-VERSION:3')
[hls @ 0x1519046e0] Skip ('#EXT-X-DISCONTINUITY-SEQUENCE:1')
[hls @ 0x1519046e0] Skip ('#EXT-X-DISCONTINUITY')
    Last message repeated 3 times
[https @ 0x154812400] Opening 'https://tunein-acache-a.cdnstream1.com/ais-edge151-tunein-dal03.cdnstream.com/3511_96.aac/bUGEBLK2O0V-292287961-743.aac' for reading
[https @ 0x15482e200] Opening 'https://tunein-acache-a.cdnstream1.com/ais-edge151-tunein-dal03.cdnstream.com/3511_96.aac/fSx0msravsF-292287961-5990.aac' for reading
size=   30464KiB time=00:02:57.70 bitrate=1404.4kbits/s speed=2.43x    size=   31744KiB time=00:03:04.43 bitrate=1410.0kbits/s speed=2.51x    size=   31744KiB time=00:03:04.43 bitrate=1410.0kbits/s speed=2.49x    size=   31744KiB time=00:03:04.43 bitrate=1410.0kbits/s speed=2.47x    size=   31744KiB time=00:03:04.43 bitrate=1410.0kbits/s speed=2.46x    size=   31744KiB time=00:03:04.43 bitrate=1410.0kbits/s speed=2.44x    size=   31744KiB time=00:03:04.43 bitrate=1410.0kbits/s speed=2.42x    size=   31744KiB time=00:03:04.43 bitrate=1410.0kbits/s speed=2.41x    size=   31744KiB time=00:03:04.43 bitrate=1410.0kbits/s speed=2.39x    size=   31744KiB time=00:03:04.43 bitrate=1410.0kbits/s speed=2.38x    size=   31744KiB time=00:03:04.43 bitrate=1410.0kbits/s speed=2.36x    size=   31744KiB time=00:03:04.43 bitrate=1410.0kbits/s speed=2.35x    [https @ 0x15480e400] Opening 'https://tunein.cdnstream1.com:443/3511_96.aac/playlist.m3u8?listeningSessionID=687524bd0212d116_1220169_mLmHStOY_MjE2LjIzNS44MC4xMTc6ODA!_0000000NIjk&downloadSessionID=0&aw_0_1st.premium=true&partnerID=BotTIStream&playerid=BotTIStream&aw_0_1st.ads_partner_alias=bot.TIStream' for reading
size=   31744KiB time=00:03:04.43 bitrate=1410.0kbits/s speed=2.33x    [hls @ 0x1519046e0] Skip ('#EXT-X-VERSION:3')
[hls @ 0x1519046e0] Skip ('#EXT-X-DISCONTINUITY-SEQUENCE:1')
[hls @ 0x1519046e0] Skip ('#EXT-X-DISCONTINUITY')
    Last message repeated 3 times
[https @ 0x15482e200] Opening 'https://tunein-acache-a.cdnstream1.com/ais-edge151-tunein-dal03.cdnstream.com/3511_96.aac/4I2ZQzmx3TG-292287962-5990.aac' for reading
size=   32768KiB time=00:03:10.42 bitrate=1409.7kbits/s speed=2.39x    size=   32768KiB time=00:03:10.42 bitrate=1409.7kbits/s speed=2.38x    size=   32768KiB time=00:03:10.42 bitrate=1409.7kbits/s speed=2.36x    size=   32768KiB time=00:03:10.42 bitrate=1409.7kbits/s speed=2.35x    size=   32768KiB time=00:03:10.42 bitrate=1409.7kbits/s speed=2.33x    size=   32768KiB time=00:03:10.42 bitrate=1409.7kbits/s speed=2.32x    size=   32768KiB time=00:03:10.42 bitrate=1409.7kbits/s speed= 2.3x    size=   32768KiB time=00:03:10.42 bitrate=1409.7kbits/s speed=2.29x    size=   32768KiB time=00:03:10.42 bitrate=1409.7kbits/s speed=2.28x    size=   32768KiB time=00:03:10.42 bitrate=1409.7kbits/s speed=2.26x    size=   32768KiB time=00:03:10.42 bitrate=1409.7kbits/s speed=2.25x    size=   32768KiB time=00:03:10.42 bitrate=1409.7kbits/s speed=2.24x    [https @ 0x15480e400] Opening 'https://tunein.cdnstream1.com:443/3511_96.aac/playlist.m3u8?listeningSessionID=687524bd0212d116_1220169_mLmHStOY_MjE2LjIzNS44MC4xMTc6ODA!_0000000NIjk&downloadSessionID=0&aw_0_1st.premium=true&partnerID=BotTIStream&playerid=BotTIStream&aw_0_1st.ads_partner_alias=bot.TIStream' for reading
[hls @ 0x1519046e0] Skip ('#EXT-X-VERSION:3')
[hls @ 0x1519046e0] Skip ('#EXT-X-DISCONTINUITY-SEQUENCE:1')
[hls @ 0x1519046e0] Skip ('#EXT-X-DISCONTINUITY')
    Last message repeated 3 times
[https @ 0x15482e200] Opening 'https://tunein-acache-a.cdnstream1.com/ais-edge151-tunein-dal03.cdnstream.com/3511_96.aac/iKh2tP6mJyA-292287963-6013.aac' for reading
size=   32768KiB time=00:03:10.42 bitrate=1409.7kbits/s speed=2.22x    size=   32768KiB time=00:03:10.42 bitrate=1409.7kbits/s speed=2.21x    size=   33792KiB time=00:03:16.44 bitrate=1409.2kbits/s speed=2.27x    size=   33792KiB time=00:03:16.44 bitrate=1409.2kbits/s speed=2.25x    size=   33792KiB time=00:03:16.44 bitrate=1409.2kbits/s speed=2.24x    size=   33792KiB time=00:03:16.44 bitrate=1409.2kbits/s speed=2.23x    size=   33792KiB time=00:03:16.44 bitrate=1409.2kbits/s speed=2.22x    size=   33792KiB time=00:03:16.44 bitrate=1409.2kbits/s speed= 2.2x    size=   33792KiB time=00:03:16.44 bitrate=1409.2kbits/s speed=2.19x    size=   33792KiB time=00:03:16.44 bitrate=1409.2kbits/s speed=2.18x    size=   33792KiB time=00:03:16.44 bitrate=1409.2kbits/s speed=2.17x    size=   33792KiB time=00:03:16.44 bitrate=1409.2kbits/s speed=2.15x    [https @ 0x15480e400] Opening 'https://tunein.cdnstream1.com:443/3511_96.aac/playlist.m3u8?listeningSessionID=687524bd0212d116_1220169_mLmHStOY_MjE2LjIzNS44MC4xMTc6ODA!_0000000NIjk&downloadSessionID=0&aw_0_1st.premium=true&partnerID=BotTIStream&playerid=BotTIStream&aw_0_1st.ads_partner_alias=bot.TIStream' for reading
size=   33792KiB time=00:03:16.44 bitrate=1409.2kbits/s speed=2.14x    [hls @ 0x1519046e0] Skip ('#EXT-X-VERSION:3')
[hls @ 0x1519046e0] Skip ('#EXT-X-DISCONTINUITY-SEQUENCE:1')
[hls @ 0x1519046e0] Skip ('#EXT-X-DISCONTINUITY')
    Last message repeated 3 times
[https @ 0x15482e200] Opening 'https://tunein-acache-a.cdnstream1.com/ais-edge151-tunein-dal03.cdnstream.com/3511_96.aac/bDAmRO0AT2Q-292287964-5990.aac' for reading
size=   33792KiB time=00:03:16.44 bitrate=1409.2kbits/s speed=2.13x    size=   34816KiB time=00:03:22.43 bitrate=1408.9kbits/s speed=2.18x    size=   34816KiB time=00:03:22.43 bitrate=1408.9kbits/s speed=2.17x    size=   34816KiB time=00:03:22.43 bitrate=1408.9kbits/s speed=2.16x    size=   34816KiB time=00:03:22.43 bitrate=1408.9kbits/s speed=2.15x    size=   34816KiB time=00:03:22.43 bitrate=1408.9kbits/s speed=2.14x    size=   34816KiB time=00:03:22.43 bitrate=1408.9kbits/s speed=2.13x    size=   34816KiB time=00:03:22.43 bitrate=1408.9kbits/s speed=2.11x    size=   34816KiB time=00:03:22.43 bitrate=1408.9kbits/s speed= 2.1x    size=   34816KiB time=00:03:22.43 bitrate=1408.9kbits/s speed=2.09x    size=   34816KiB time=00:03:22.43 bitrate=1408.9kbits/s speed=2.08x    size=   34816KiB time=00:03:22.43 bitrate=1408.9kbits/s speed=2.07x    [https @ 0x15480e400] Opening 'https://tunein.cdnstream1.com:443/3511_96.aac/playlist.m3u8?listeningSessionID=687524bd0212d116_1220169_mLmHStOY_MjE2LjIzNS44MC4xMTc6ODA!_0000000NIjk&downloadSessionID=0&aw_0_1st.premium=true&partnerID=BotTIStream&playerid=BotTIStream&aw_0_1st.ads_partner_alias=bot.TIStream' for reading
size=   34816KiB time=00:03:22.43 bitrate=1408.9kbits/s speed=2.06x    [hls @ 0x1519046e0] Skip ('#EXT-X-VERSION:3')
[hls @ 0x1519046e0] Skip ('#EXT-X-DISCONTINUITY-SEQUENCE:2')
[hls @ 0x1519046e0] Skip ('#EXT-X-DISCONTINUITY')
    Last message repeated 2 times
[https @ 0x15482e200] Opening 'https://tunein-acache-a.cdnstream1.com/ais-edge151-tunein-dal03.cdnstream.com/3511_96.aac/8DeGSuH4BXJ-292287965-5990.aac' for reading
size=   35072KiB time=00:03:24.40 bitrate=1405.6kbits/s speed=2.07x    size=   35840KiB time=00:03:28.42 bitrate=1408.7kbits/s speed= 2.1x    size=   35840KiB time=00:03:28.42 bitrate=1408.7kbits/s speed=2.09x    size=   35840KiB time=00:03:28.42 bitrate=1408.7kbits/s speed=2.08x    size=   35840KiB time=00:03:28.42 bitrate=1408.7kbits/s speed=2.07x    size=   35840KiB time=00:03:28.42 bitrate=1408.7kbits/s speed=2.06x    size=   35840KiB time=00:03:28.42 bitrate=1408.7kbits/s speed=2.05x    size=   35840KiB time=00:03:28.42 bitrate=1408.7kbits/s speed=2.04x    size=   35840KiB time=00:03:28.42 bitrate=1408.7kbits/s speed=2.03x    size=   35840KiB time=00:03:28.42 bitrate=1408.7kbits/s speed=2.02x    size=   35840KiB time=00:03:28.42 bitrate=1408.7kbits/s speed=2.01x    size=   35840KiB time=00:03:28.42 bitrate=1408.7kbits/s speed=   2x    [https @ 0x15480e400] Opening 'https://tunein.cdnstream1.com:443/3511_96.aac/playlist.m3u8?listeningSessionID=687524bd0212d116_1220169_mLmHStOY_MjE2LjIzNS44MC4xMTc6ODA!_0000000NIjk&downloadSessionID=0&aw_0_1st.premium=true&partnerID=BotTIStream&playerid=BotTIStream&aw_0_1st.ads_partner_alias=bot.TIStream' for reading
[hls @ 0x1519046e0] Skip ('#EXT-X-VERSION:3')
[hls @ 0x1519046e0] Skip ('#EXT-X-DISCONTINUITY-SEQUENCE:3')
[hls @ 0x1519046e0] Skip ('#EXT-X-DISCONTINUITY')
    Last message repeated 1 times
[https @ 0x15482e200] Opening 'https://tunein-acache-a.cdnstream1.com/ais-edge151-tunein-dal03.cdnstream.com/3511_96.aac/b5NgGsvdPBX-292287966-6013.aac' for reading
size=   35840KiB time=00:03:28.42 bitrate=1408.7kbits/s speed=1.99x    size=   36864KiB time=00:03:34.43 bitrate=1408.3kbits/s speed=2.04x    size=   36864KiB time=00:03:34.43 bitrate=1408.3kbits/s speed=2.03x    size=   36864KiB time=00:03:34.43 bitrate=1408.3kbits/s speed=2.02x    size=   36864KiB time=00:03:34.43 bitrate=1408.3kbits/s speed=2.01x    size=   36864KiB time=00:03:34.43 bitrate=1408.3kbits/s speed=   2x    size=   36864KiB time=00:03:34.43 bitrate=1408.3kbits/s speed=1.99x    size=   36864KiB time=00:03:34.43 bitrate=1408.3kbits/s speed=1.98x    size=   36864KiB time=00:03:34.43 bitrate=1408.3kbits/s speed=1.97x    size=   36864KiB time=00:03:34.43 bitrate=1408.3kbits/s speed=1.96x    size=   36864KiB time=00:03:34.43 bitrate=1408.3kbits/s speed=1.95x    size=   36864KiB time=00:03:34.43 bitrate=1408.3kbits/s speed=1.94x    [https @ 0x15480e400] Opening 'https://tunein.cdnstream1.com:443/3511_96.aac/playlist.m3u8?listeningSessionID=687524bd0212d116_1220169_mLmHStOY_MjE2LjIzNS44MC4xMTc6ODA!_0000000NIjk&downloadSessionID=0&aw_0_1st.premium=true&partnerID=BotTIStream&playerid=BotTIStream&aw_0_1st.ads_partner_alias=bot.TIStream' for reading
size=   36864KiB time=00:03:34.43 bitrate=1408.3kbits/s speed=1.93x    [hls @ 0x1519046e0] Skip ('#EXT-X-VERSION:3')
[hls @ 0x1519046e0] Skip ('#EXT-X-DISCONTINUITY-SEQUENCE:3')
[hls @ 0x1519046e0] Skip ('#EXT-X-DISCONTINUITY')
    Last message repeated 1 times
[https @ 0x15482e200] Opening 'https://tunein-acache-a.cdnstream1.com/ais-edge151-tunein-dal03.cdnstream.com/3511_96.aac/2UsnKYMnmmw-292287967-5990.aac' for reading
size=   36864KiB time=00:03:34.43 bitrate=1408.3kbits/s speed=1.93x    size=   37888KiB time=00:03:40.42 bitrate=1408.1kbits/s speed=1.97x    size=   37888KiB time=00:03:40.42 bitrate=1408.1kbits/s speed=1.96x    size=   37888KiB time=00:03:40.42 bitrate=1408.1kbits/s speed=1.95x    size=   37888KiB time=00:03:40.42 bitrate=1408.1kbits/s speed=1.94x    size=   37888KiB time=00:03:40.42 bitrate=1408.1kbits/s speed=1.94x    size=   37888KiB time=00:03:40.42 bitrate=1408.1kbits/s speed=1.93x    size=   37888KiB time=00:03:40.42 bitrate=1408.1kbits/s speed=1.92x    size=   37888KiB time=00:03:40.42 bitrate=1408.1kbits/s speed=1.91x    size=   37888KiB time=00:03:40.42 bitrate=1408.1kbits/s speed= 1.9x    size=   37888KiB time=00:03:40.42 bitrate=1408.1kbits/s speed=1.89x    size=   37888KiB time=00:03:40.42 bitrate=1408.1kbits/s speed=1.89x    [https @ 0x15480e400] Opening 'https://tunein.cdnstream1.com:443/3511_96.aac/playlist.m3u8?listeningSessionID=687524bd0212d116_1220169_mLmHStOY_MjE2LjIzNS44MC4xMTc6ODA!_0000000NIjk&downloadSessionID=0&aw_0_1st.premium=true&partnerID=BotTIStream&playerid=BotTIStream&aw_0_1st.ads_partner_alias=bot.TIStream' for reading
size=   37888KiB time=00:03:40.42 bitrate=1408.1kbits/s speed=1.88x    [hls @ 0x1519046e0] Skip ('#EXT-X-VERSION:3')
[hls @ 0x1519046e0] Skip ('#EXT-X-DISCONTINUITY-SEQUENCE:3')
[hls @ 0x1519046e0] Skip ('#EXT-X-DISCONTINUITY')
    Last message repeated 1 times
[https @ 0x15482e200] Opening 'https://tunein-acache-a.cdnstream1.com/ais-edge151-tunein-dal03.cdnstream.com/3511_96.aac/9pKRWGGO4oa-292287968-6013.aac' for reading
size=   37888KiB time=00:03:40.42 bitrate=1408.1kbits/s speed=1.87x    size=   38912KiB time=00:03:46.44 bitrate=1407.7kbits/s speed=1.91x    size=   38912KiB time=00:03:46.44 bitrate=1407.7kbits/s speed= 1.9x    size=   38912KiB time=00:03:46.44 bitrate=1407.7kbits/s speed= 1.9x    size=   38912KiB time=00:03:46.44 bitrate=1407.7kbits/s speed=1.89x    size=   38912KiB time=00:03:46.44 bitrate=1407.7kbits/s speed=1.88x    size=   38912KiB time=00:03:46.44 bitrate=1407.7kbits/s speed=1.87x    size=   38912KiB time=00:03:46.44 bitrate=1407.7kbits/s speed=1.87x    size=   38912KiB time=00:03:46.44 bitrate=1407.7kbits/s speed=1.86x    size=   38912KiB time=00:03:46.44 bitrate=1407.7kbits/s speed=1.85x    size=   38912KiB time=00:03:46.44 bitrate=1407.7kbits/s speed=1.84x    size=   38912KiB time=00:03:46.44 bitrate=1407.7kbits/s speed=1.83x    [https @ 0x15480e400] Opening 'https://tunein.cdnstream1.com:443/3511_96.aac/playlist.m3u8?listeningSessionID=687524bd0212d116_1220169_mLmHStOY_MjE2LjIzNS44MC4xMTc6ODA!_0000000NIjk&downloadSessionID=0&aw_0_1st.premium=true&partnerID=BotTIStream&playerid=BotTIStream&aw_0_1st.ads_partner_alias=bot.TIStream' for reading
size=   38912KiB time=00:03:46.44 bitrate=1407.7kbits/s speed=1.83x    [hls @ 0x1519046e0] Skip ('#EXT-X-VERSION:3')
[hls @ 0x1519046e0] Skip ('#EXT-X-DISCONTINUITY-SEQUENCE:3')
[hls @ 0x1519046e0] Skip ('#EXT-X-DISCONTINUITY')
    Last message repeated 1 times
[https @ 0x15482e200] Opening 'https://tunein-acache-a.cdnstream1.com/ais-edge151-tunein-dal03.cdnstream.com/3511_96.aac/2MYkHEELDKK-292287969-5990.aac' for reading
[https @ 0x154812400] Opening 'https://tunein-acache-a.cdnstream1.com/ais-edge151-tunein-dal03.cdnstream.com/3511_96.aac/fxA5Mav7MmA-292287970-5990.aac' for reading
size=   38912KiB time=00:03:46.44 bitrate=1407.7kbits/s speed=1.82x    size=   40960KiB time=00:03:58.42 bitrate=1407.4kbits/s speed=1.91x    size=   40960KiB time=00:03:58.42 bitrate=1407.4kbits/s speed= 1.9x    size=   40960KiB time=00:03:58.42 bitrate=1407.4kbits/s speed=1.89x    size=   40960KiB time=00:03:58.42 bitrate=1407.4kbits/s speed=1.89x    size=   40960KiB time=00:03:58.42 bitrate=1407.4kbits/s speed=1.88x    size=   40960KiB time=00:03:58.42 bitrate=1407.4kbits/s speed=1.87x    size=   40960KiB time=00:03:58.42 bitrate=1407.4kbits/s speed=1.86x    size=   40960KiB time=00:03:58.42 bitrate=1407.4kbits/s speed=1.86x    size=   40960KiB time=00:03:58.42 bitrate=1407.4kbits/s speed=1.85x    size=   40960KiB time=00:03:58.42 bitrate=1407.4kbits/s speed=1.84x    size=   40960KiB time=00:03:58.42 bitrate=1407.4kbits/s speed=1.83x    [https @ 0x15480e400] Opening 'https://tunein.cdnstream1.com:443/3511_96.aac/playlist.m3u8?listeningSessionID=687524bd0212d116_1220169_mLmHStOY_MjE2LjIzNS44MC4xMTc6ODA!_0000000NIjk&downloadSessionID=0&aw_0_1st.premium=true&partnerID=BotTIStream&playerid=BotTIStream&aw_0_1st.ads_partner_alias=bot.TIStream' for reading
[hls @ 0x1519046e0] Skip ('#EXT-X-VERSION:3')
[hls @ 0x1519046e0] Skip ('#EXT-X-DISCONTINUITY-SEQUENCE:3')
[hls @ 0x1519046e0] Skip ('#EXT-X-DISCONTINUITY')
    Last message repeated 1 times
[https @ 0x154812400] Opening 'https://tunein-acache-a.cdnstream1.com/ais-edge151-tunein-dal03.cdnstream.com/3511_96.aac/53o51pfwoi2-292287971-6013.aac' for reading
size=   40960KiB time=00:03:58.42 bitrate=1407.4kbits/s speed=1.83x    [out#0/wav @ 0x600001dec0c0] video:0KiB audio:41344KiB subtitle:0KiB other streams:0KiB global headers:0KiB muxing overhead: 0.000184%
size=   41344KiB time=00:04:00.00 bitrate=1411.2kbits/s speed=1.84x    
